<svg xmlns="http://www.w3.org/2000/svg" xmlns:xlink="http://www.w3.org/1999/xlink" width="500" zoomAndPan="magnify" viewBox="0 0 375 374.999991" height="500" preserveAspectRatio="xMidYMid meet" version="1.0"><defs><g/><clipPath id="d2022a0c98"><path d="M 66.097656 70.332031 L 323 70.332031 L 323 235.332031 L 66.097656 235.332031 Z M 66.097656 70.332031 " clip-rule="nonzero"/></clipPath></defs><g clip-path="url(#d2022a0c98)"><path fill="#ffffff" d="M 140.429688 76.246094 L 68.617188 144.050781 C 66.84375 145.722656 66.1875 148.265625 66.925781 150.585938 L 74.117188 173.222656 C 74.589844 174.707031 75.503906 176.007812 76.734375 176.953125 L 149.058594 232.5 C 151.296875 234.222656 154.492188 233.90625 156.347656 231.773438 L 157.902344 229.992188 C 159.640625 228 162.519531 227.457031 164.863281 228.679688 L 175.480469 234.21875 C 177.148438 235.085938 179.070312 235.339844 180.90625 234.929688 L 276.773438 213.574219 C 279.121094 213.050781 280.589844 210.710938 280.039062 208.367188 L 278.890625 203.488281 C 278.285156 200.914062 279.105469 198.21875 281.035156 196.417969 L 320.621094 159.53125 C 323.078125 157.242188 323.171875 153.378906 320.828125 150.976562 L 244.519531 72.566406 C 242.433594 70.421875 239.023438 70.308594 236.800781 72.3125 L 225.339844 82.625 C 223.054688 84.679688 219.664062 84.90625 217.125 83.171875 C 213.039062 80.375 204.503906 76.832031 194.121094 76.832031 C 182.527344 76.832031 173.726562 81.855469 168.4375 85.097656 C 165.933594 86.632812 162.757812 86.527344 160.351562 84.839844 L 147.375 75.738281 C 145.234375 74.238281 142.332031 74.449219 140.429688 76.246094 Z M 140.429688 76.246094 " fill-opacity="1" fill-rule="nonzero"/></g><path fill="#0fb1ea" d="M 143.695312 81.0625 L 80.199219 167.652344 L 155.515625 224.644531 L 216.757812 136.347656 Z M 143.695312 81.0625 " fill-opacity="1" fill-rule="nonzero"/><path fill="#094459" d="M 143.695312 81.0625 L 73.433594 149.5 L 80.199219 167.652344 Z M 143.695312 81.0625 " fill-opacity="1" fill-rule="nonzero"/><path fill="#094459" d="M 187.996094 133.746094 C 187.597656 133.746094 187.195312 133.617188 186.851562 133.355469 C 186.027344 132.726562 185.871094 131.546875 186.503906 130.722656 C 186.667969 130.507812 202.726562 109.367188 200.871094 95.664062 C 200.429688 92.421875 199.039062 89.953125 196.609375 88.117188 C 194.175781 86.273438 191.414062 85.613281 188.191406 86.070312 C 174.511719 88.03125 158.613281 109.269531 158.453125 109.484375 C 157.835938 110.320312 156.65625 110.496094 155.824219 109.875 C 154.992188 109.257812 154.816406 108.078125 155.433594 107.246094 C 156.121094 106.320312 172.441406 84.53125 187.660156 82.351562 C 191.875 81.742188 195.652344 82.675781 198.875 85.117188 C 202.101562 87.554688 204.027344 90.9375 204.597656 95.164062 C 206.65625 110.417969 190.191406 132.09375 189.488281 133.007812 C 189.117188 133.492188 188.558594 133.746094 187.996094 133.746094 Z M 187.996094 133.746094 " fill-opacity="1" fill-rule="nonzero"/><path fill="#f7ce26" d="M 153.042969 122.417969 L 179.0625 226.59375 L 271.027344 205.089844 L 242.261719 101.558594 Z M 153.042969 122.417969 " fill-opacity="1" fill-rule="nonzero"/><path fill="#094459" d="M 153.042969 122.417969 L 160.171875 220.25 L 179.0625 226.59375 Z M 153.042969 122.417969 " fill-opacity="1" fill-rule="nonzero"/><path fill="#094459" d="M 182.507812 131.558594 C 181.664062 131.558594 180.894531 130.984375 180.683594 130.125 C 180.410156 129.003906 174.085938 102.523438 182.132812 89.425781 C 184.363281 85.796875 187.492188 83.488281 191.429688 82.570312 C 195.359375 81.644531 199.195312 82.328125 202.8125 84.589844 C 215.859375 92.75 222.007812 119.273438 222.261719 120.394531 C 222.492188 121.410156 221.859375 122.414062 220.847656 122.644531 C 219.824219 122.882812 218.824219 122.242188 218.59375 121.230469 C 218.535156 120.96875 212.539062 95.105469 200.816406 87.773438 C 198.042969 86.039062 195.25 85.535156 192.285156 86.230469 C 189.316406 86.921875 187.046875 88.613281 185.335938 91.394531 C 178.101562 103.167969 184.273438 128.972656 184.335938 129.234375 C 184.582031 130.242188 183.964844 131.257812 182.957031 131.503906 C 182.808594 131.542969 182.65625 131.558594 182.507812 131.558594 Z M 182.507812 131.558594 " fill-opacity="1" fill-rule="nonzero"/><path fill="#f07423" d="M 169.332031 137.941406 L 240.835938 218.046875 L 312.234375 156.21875 L 238.59375 77.964844 Z M 169.332031 137.941406 " fill-opacity="1" fill-rule="nonzero"/><path fill="#094459" d="M 169.332031 137.941406 L 221.164062 221.222656 L 240.835938 218.046875 Z M 169.332031 137.941406 " fill-opacity="1" fill-rule="nonzero"/><path fill="#094459" d="M 198.792969 132.539062 C 198.273438 132.539062 197.757812 132.324219 197.382812 131.902344 C 196.621094 131.035156 178.699219 110.542969 179.726562 95.207031 C 180.011719 90.957031 181.707031 87.457031 184.765625 84.808594 C 187.820312 82.164062 191.53125 80.980469 195.785156 81.300781 C 211.132812 82.457031 228.910156 103.066406 229.660156 103.945312 C 230.335938 104.734375 230.242188 105.921875 229.453125 106.59375 C 228.664062 107.269531 227.476562 107.175781 226.804688 106.386719 C 226.628906 106.183594 209.285156 86.085938 195.496094 85.050781 C 192.253906 84.808594 189.53125 85.65625 187.226562 87.652344 C 184.921875 89.644531 183.695312 92.199219 183.480469 95.457031 C 182.554688 109.246094 200.027344 129.214844 200.203125 129.414062 C 200.890625 130.191406 200.816406 131.378906 200.039062 132.070312 C 199.679688 132.382812 199.238281 132.539062 198.792969 132.539062 Z M 198.792969 132.539062 " fill-opacity="1" fill-rule="nonzero"/><g fill="#000000" fill-opacity="1"><g transform="translate(73.362361, 243.707684)"><g><path d="M 40.011719 -16.140625 L 40.011719 -16.195312 C 40.011719 -19.527344 37.734375 -21.167969 35.40625 -21.167969 C 33.023438 -21.167969 30.644531 -19.476562 30.644531 -16.195312 L 30.644531 -16.140625 C 30.644531 -15.558594 30.695312 -14.820312 30.695312 -13.972656 C 30.695312 -7.25 29.953125 5.503906 26.089844 5.503906 C 22.917969 5.503906 20.585938 3.546875 20.585938 -9.472656 C 20.585938 -11.855469 20.691406 -14.605469 20.851562 -17.78125 C 20.800781 -18.839844 19.476562 -19.476562 18.152344 -19.476562 C 16.828125 -19.476562 15.453125 -18.839844 15.453125 -17.464844 L 15.453125 -15.1875 C 15.453125 -8.308594 15.082031 6.085938 10.957031 6.085938 L 10.847656 6.085938 C 8.203125 5.925781 7.515625 1.269531 7.515625 -3.96875 C 7.515625 -9.898438 8.414062 -16.617188 8.414062 -18.207031 L 8.414062 -18.363281 C 8.363281 -19.316406 6.507812 -19.847656 4.761719 -19.847656 C 3.121094 -19.847656 1.585938 -19.421875 1.585938 -18.417969 C 1.585938 -17.730469 1.480469 -16.089844 1.480469 -13.917969 C 1.480469 -5.132812 2.488281 12.4375 11.21875 12.4375 L 11.644531 12.4375 C 17.625 12.066406 18.101562 3.226562 18.789062 2.382812 C 19.421875 6.667969 22.015625 11.539062 26.886719 11.695312 L 27.257812 11.695312 C 38.792969 11.695312 40.117188 -4.5 40.117188 -12.226562 C 40.117188 -14.5 40.011719 -16.035156 40.011719 -16.140625 Z M 40.011719 -16.140625 "/></g></g></g><g fill="#000000" fill-opacity="1"><g transform="translate(115.381086, 243.707684)"><g><path d="M 20.851562 17.042969 C 21.011719 17.042969 21.222656 17.09375 21.382812 17.09375 C 24.1875 17.09375 25.667969 14.765625 26.410156 11.90625 C 26.9375 9.683594 28.898438 2.0625 28.898438 -5.558594 C 28.898438 -14.660156 26.144531 -23.816406 14.976562 -23.816406 L 14.078125 -23.816406 C 5.609375 -23.816406 1.269531 -18.894531 1.269531 -11.695312 C 1.269531 -11.324219 1.324219 -10.902344 1.324219 -10.53125 C 1.429688 -8.734375 3.015625 -7.726562 4.5 -7.726562 C 5.820312 -7.726562 7.039062 -8.519531 7.039062 -10.320312 C 7.144531 -18.523438 11.21875 -21.117188 13.761719 -21.222656 C 20.691406 -21.011719 19.742188 -11.167969 19.898438 -5.292969 L 19.898438 -5.082031 C 19.898438 -4.761719 19.847656 -4.605469 19.6875 -4.605469 C 19.160156 -4.605469 17.410156 -6.667969 13.125 -6.667969 C 5.609375 -6.667969 1.535156 0.105469 1.535156 5.503906 C 1.535156 6.507812 1.695312 7.410156 1.957031 8.257812 C 3.28125 12.4375 5.820312 16.140625 12.066406 16.140625 L 12.808594 16.140625 C 17.570312 15.878906 18.628906 12.542969 18.945312 12.542969 C 18.945312 12.542969 19 12.542969 19 12.597656 C 19.105469 12.914062 19.160156 13.230469 19.160156 13.546875 C 19.160156 14.394531 18.839844 15.136719 18.839844 15.769531 C 18.839844 16.460938 19.210938 16.882812 20.851562 17.042969 Z M 13.335938 13.125 C 9.367188 13.019531 8.574219 8.996094 8.574219 5.769531 C 8.574219 3.96875 8.839844 2.382812 8.890625 2.011719 C 9.261719 -0.0546875 10.53125 -3.546875 15.296875 -3.597656 C 17.304688 -3.597656 20.058594 -1.90625 20.058594 -1.269531 L 20.058594 1.375 C 20.058594 2.539062 20.003906 4.339844 19.582031 8.203125 C 19.476562 9.367188 17.042969 13.125 13.390625 13.125 Z M 13.335938 13.125 "/></g></g></g><g fill="#000000" fill-opacity="1"><g transform="translate(145.810261, 243.707684)"><g><path d="M 24.769531 -8.996094 L 24.875 -8.996094 C 25.5625 -8.996094 27.785156 -9.578125 28.101562 -11.800781 C 28.15625 -12.066406 28.207031 -12.4375 28.207031 -12.914062 C 28.207031 -15.613281 26.78125 -20.691406 22.070312 -21.644531 C 21.59375 -21.75 21.117188 -21.804688 20.691406 -21.804688 C 17.199219 -21.804688 14.976562 -19.050781 13.867188 -19.050781 C 13.496094 -19.050781 13.230469 -19.421875 13.179688 -20.429688 C 12.648438 -23.550781 10.53125 -24.980469 8.203125 -24.980469 C 5.132812 -24.980469 1.851562 -22.492188 1.851562 -18.523438 L 1.851562 -17.570312 C 1.851562 -13.867188 2.167969 4.976562 3.917969 11.007812 C 4.285156 12.382812 6.191406 13.285156 7.832031 13.285156 C 8.890625 13.285156 9.84375 12.914062 10.320312 12.066406 C 11.589844 10.214844 13.019531 -0.316406 13.65625 -10.902344 C 13.761719 -13.390625 16.828125 -17.042969 19.421875 -17.042969 C 20.058594 -17.042969 20.640625 -16.828125 21.167969 -16.355469 C 23.390625 -14.289062 23.179688 -12.4375 23.605469 -10.160156 C 23.710938 -9.527344 24.1875 -8.996094 24.769531 -8.996094 Z M 24.769531 -8.996094 "/></g></g></g><g fill="#000000" fill-opacity="1"><g transform="translate(174.810588, 243.707684)"><g><path d="M 0.792969 0.6875 C 0.847656 8.148438 5.1875 13.441406 12.226562 13.441406 C 12.648438 13.441406 13.019531 13.441406 13.441406 13.390625 C 17.519531 12.964844 20.269531 8.785156 20.324219 8.785156 C 20.480469 10.636719 20.746094 13.601562 21.539062 14.820312 C 21.910156 15.453125 22.808594 15.824219 23.816406 15.824219 C 24.664062 15.824219 25.617188 15.558594 26.460938 14.976562 C 28.738281 13.546875 30.800781 -12.808594 30.800781 -28.261719 C 30.800781 -33.183594 30.589844 -37.046875 30.113281 -38.527344 C 29.585938 -40.222656 27.839844 -41.121094 26.144531 -41.121094 C 24.503906 -41.121094 22.917969 -40.328125 22.335938 -38.632812 C 20.800781 -34.136719 19.742188 -21.328125 19.742188 -12.226562 L 19.742188 -11.007812 C 17.996094 -12.488281 15.984375 -13.601562 12.542969 -13.65625 L 12.066406 -13.65625 C 4.710938 -13.65625 0.792969 -8.890625 0.792969 0.476562 Z M 19.792969 -6.667969 C 20.109375 -4.761719 20.324219 -1.003906 20.324219 1.851562 C 20.324219 2.488281 20.269531 3.015625 20.269531 3.546875 C 20.003906 6.457031 17.042969 9.207031 14.238281 9.207031 L 14.078125 9.207031 C 10.375 9.101562 8.625 4.605469 8.625 0 C 8.625 -4.65625 10.425781 -9.316406 13.707031 -9.683594 C 13.972656 -9.738281 14.289062 -9.738281 14.554688 -9.738281 C 17.519531 -9.738281 19.582031 -8.042969 19.792969 -6.667969 Z M 19.792969 -6.667969 "/></g></g></g><g fill="#000000" fill-opacity="1"><g transform="translate(207.462416, 243.707684)"><g><path d="M 24.769531 -8.996094 L 24.875 -8.996094 C 25.5625 -8.996094 27.785156 -9.578125 28.101562 -11.800781 C 28.15625 -12.066406 28.207031 -12.4375 28.207031 -12.914062 C 28.207031 -15.613281 26.78125 -20.691406 22.070312 -21.644531 C 21.59375 -21.75 21.117188 -21.804688 20.691406 -21.804688 C 17.199219 -21.804688 14.976562 -19.050781 13.867188 -19.050781 C 13.496094 -19.050781 13.230469 -19.421875 13.179688 -20.429688 C 12.648438 -23.550781 10.53125 -24.980469 8.203125 -24.980469 C 5.132812 -24.980469 1.851562 -22.492188 1.851562 -18.523438 L 1.851562 -17.570312 C 1.851562 -13.867188 2.167969 4.976562 3.917969 11.007812 C 4.285156 12.382812 6.191406 13.285156 7.832031 13.285156 C 8.890625 13.285156 9.84375 12.914062 10.320312 12.066406 C 11.589844 10.214844 13.019531 -0.316406 13.65625 -10.902344 C 13.761719 -13.390625 16.828125 -17.042969 19.421875 -17.042969 C 20.058594 -17.042969 20.640625 -16.828125 21.167969 -16.355469 C 23.390625 -14.289062 23.179688 -12.4375 23.605469 -10.160156 C 23.710938 -9.527344 24.1875 -8.996094 24.769531 -8.996094 Z M 24.769531 -8.996094 "/></g></g></g><g fill="#000000" fill-opacity="1"><g transform="translate(236.462743, 243.707684)"><g><path d="M 11.324219 -20.535156 C 4.128906 -20.535156 0.898438 -13.335938 0.898438 -5.925781 C 0.898438 2.011719 4.605469 10.265625 11.113281 10.265625 L 11.695312 10.265625 C 19.050781 9.738281 23.128906 1.640625 23.128906 -6.085938 C 23.128906 -13.441406 19.421875 -20.535156 11.324219 -20.535156 Z M 10.691406 6.296875 L 10.53125 6.296875 C 7.992188 6.296875 6.773438 0.527344 6.773438 -5.082031 C 6.773438 -10.425781 7.886719 -15.613281 10.160156 -15.71875 L 10.320312 -15.71875 C 13.496094 -15.71875 14.714844 -11.21875 14.714844 -6.296875 C 14.714844 -0.316406 12.914062 6.296875 10.691406 6.296875 Z M 10.691406 6.296875 "/></g></g></g><g fill="#000000" fill-opacity="1"><g transform="translate(261.546968, 243.707684)"><g><path d="M 10.320312 18.523438 C 10.480469 17.730469 10.636719 17.410156 10.902344 17.410156 C 11.539062 17.410156 12.808594 19 16.511719 19 L 16.617188 19 C 24.714844 19 29.160156 10.691406 29.585938 3.863281 C 29.636719 3.335938 29.636719 2.59375 29.636719 1.800781 C 29.636719 -3.492188 28.3125 -13.335938 17.886719 -13.335938 L 17.519531 -13.335938 C 13.546875 -13.230469 12.332031 -10.847656 12.066406 -10.847656 C 12.015625 -10.847656 12.015625 -10.957031 12.015625 -11.113281 C 12.066406 -14.871094 12.703125 -22.597656 12.703125 -30.695312 C 12.703125 -32.601562 12.703125 -34.507812 12.597656 -36.410156 C 12.488281 -38.898438 10.480469 -40.328125 8.414062 -40.328125 C 6.5625 -40.328125 4.605469 -39.109375 4.128906 -36.410156 C 2.964844 -30.273438 1.746094 -20.058594 1.746094 -8.308594 C 1.746094 0.0546875 2.382812 9.207031 4.128906 18.257812 C 4.445312 19.898438 5.769531 20.585938 7.09375 20.585938 C 8.574219 20.585938 10.054688 19.792969 10.320312 18.523438 Z M 11.800781 -6.722656 C 11.855469 -7.726562 14.183594 -9.367188 16.566406 -9.367188 C 17.570312 -9.367188 18.578125 -9.050781 19.421875 -8.363281 C 20.640625 -7.304688 21.433594 -3.175781 21.433594 1.375 C 21.433594 7.886719 19.847656 15.242188 15.664062 15.507812 L 15.347656 15.507812 C 13.761719 15.507812 12.4375 14.765625 11.113281 13.972656 C 10.902344 13.8125 10.847656 13.65625 10.847656 13.496094 C 10.847656 13.285156 10.902344 13.074219 10.902344 12.914062 L 10.902344 12.066406 C 10.902344 11.0625 11.007812 9.789062 11.800781 -6.722656 Z M 11.800781 -6.722656 "/></g></g></g><g fill="#000000" fill-opacity="1"><g transform="translate(292.134914, 243.707684)"><g><path d="M 21.59375 -11.273438 C 21.804688 -12.015625 21.964844 -13.019531 21.964844 -14.183594 C 21.964844 -17.886719 20.429688 -22.96875 15.136719 -24.449219 C 13.867188 -24.820312 12.648438 -24.980469 11.589844 -24.980469 C 3.121094 -24.980469 1.269531 -14.238281 1.058594 -4.445312 L 1.058594 -3.441406 C 1.058594 3.808594 4.179688 15.453125 11.855469 15.71875 L 12.121094 15.71875 C 18.152344 15.71875 22.441406 7.621094 22.441406 3.386719 C 22.441406 1.851562 21.910156 0.847656 20.691406 0.847656 C 19.265625 0.898438 19.210938 2.117188 19.050781 3.28125 C 18.46875 7.09375 17.359375 11.21875 13.285156 11.21875 C 13.125 11.21875 12.914062 11.167969 12.703125 11.167969 C 10.214844 10.902344 9.050781 8.785156 9.050781 0.582031 C 9.050781 -1.21875 9.101562 -3.335938 9.207031 -5.769531 C 11.644531 -6.140625 20.324219 -6.351562 21.59375 -11.273438 Z M 14.765625 -20.851562 C 16.671875 -20.375 18.257812 -17.09375 18.257812 -14.449219 C 18.257812 -12.859375 17.675781 -11.539062 16.300781 -11.113281 C 14.714844 -10.636719 13.441406 -10.425781 12.4375 -10.425781 C 10.636719 -10.425781 9.738281 -11.007812 9.738281 -11.800781 L 9.738281 -12.066406 C 9.738281 -13.707031 10.425781 -20.957031 13.972656 -20.957031 C 14.238281 -20.957031 14.5 -20.90625 14.765625 -20.851562 Z M 14.765625 -20.851562 "/></g></g></g><g fill="#000000" fill-opacity="1"><g transform="translate(105.08525, 283.035521)"><g/></g></g><g fill="#000000" fill-opacity="1"><g transform="translate(111.095731, 283.035521)"><g><path d="M 6.375 -6.390625 L 2.265625 -6.390625 L 2.265625 -4.359375 L 5.9375 -4.359375 L 5.9375 -3.21875 L 2.265625 -3.21875 L 2.265625 -1.140625 L 6.5 -1.140625 L 6.5 0 L 0.984375 0 L 0.984375 -7.53125 L 6.375 -7.53125 Z M 6.375 -6.390625 "/></g></g></g><g fill="#000000" fill-opacity="1"><g transform="translate(121.382362, 283.035521)"><g><path d="M 2.265625 -1.15625 L 5.515625 -1.15625 L 5.515625 0 L 0.984375 0 L 0.984375 -7.53125 L 2.265625 -7.53125 Z M 2.265625 -1.15625 "/></g></g></g><g fill="#000000" fill-opacity="1"><g transform="translate(130.356266, 283.035521)"><g><path d="M 6.375 -6.390625 L 2.265625 -6.390625 L 2.265625 -4.359375 L 5.9375 -4.359375 L 5.9375 -3.21875 L 2.265625 -3.21875 L 2.265625 -1.140625 L 6.5 -1.140625 L 6.5 0 L 0.984375 0 L 0.984375 -7.53125 L 6.375 -7.53125 Z M 6.375 -6.390625 "/></g></g></g><g fill="#000000" fill-opacity="1"><g transform="translate(140.642898, 283.035521)"><g><path d="M 4.34375 0 L 3.03125 0 L 0.03125 -7.53125 L 1.40625 -7.53125 L 3.71875 -1.40625 L 6.078125 -7.53125 L 7.390625 -7.53125 Z M 4.34375 0 "/></g></g></g><g fill="#000000" fill-opacity="1"><g transform="translate(151.295372, 283.035521)"><g><path d="M 5.859375 -1.703125 L 2.0625 -1.703125 L 1.328125 0 L 0.015625 0 L 3.34375 -7.53125 L 4.640625 -7.53125 L 7.9375 0 L 6.578125 0 Z M 5.375 -2.828125 L 3.953125 -6.171875 L 2.53125 -2.828125 Z M 5.375 -2.828125 "/></g></g></g><g fill="#000000" fill-opacity="1"><g transform="translate(162.464331, 283.035521)"><g><path d="M 6.140625 -6.390625 L 3.75 -6.390625 L 3.75 0 L 2.46875 0 L 2.46875 -6.390625 L 0.09375 -6.390625 L 0.09375 -7.53125 L 6.140625 -7.53125 Z M 6.140625 -6.390625 "/></g></g></g><g fill="#000000" fill-opacity="1"><g transform="translate(171.922428, 283.035521)"><g><path d="M 6.375 -6.390625 L 2.265625 -6.390625 L 2.265625 -4.359375 L 5.9375 -4.359375 L 5.9375 -3.21875 L 2.265625 -3.21875 L 2.265625 -1.140625 L 6.5 -1.140625 L 6.5 0 L 0.984375 0 L 0.984375 -7.53125 L 6.375 -7.53125 Z M 6.375 -6.390625 "/></g></g></g><g fill="#000000" fill-opacity="1"><g transform="translate(182.209057, 283.035521)"><g/></g></g><g fill="#000000" fill-opacity="1"><g transform="translate(188.213169, 283.035521)"><g><path d="M 4.078125 -2.515625 L 4.078125 0 L 2.828125 0 L 2.828125 -2.46875 L 0.015625 -7.53125 L 1.296875 -7.53125 L 3.4375 -3.859375 L 5.5625 -7.53125 L 6.84375 -7.53125 Z M 4.078125 -2.515625 "/></g></g></g><g fill="#000000" fill-opacity="1"><g transform="translate(198.295361, 283.035521)"><g><path d="M 1.515625 -6.46875 C 2.285156 -7.195312 3.234375 -7.5625 4.359375 -7.5625 C 5.484375 -7.5625 6.429688 -7.195312 7.203125 -6.46875 C 7.972656 -5.738281 8.359375 -4.835938 8.359375 -3.765625 C 8.359375 -2.691406 7.972656 -1.785156 7.203125 -1.046875 C 6.429688 -0.316406 5.484375 0.046875 4.359375 0.046875 C 3.234375 0.046875 2.285156 -0.316406 1.515625 -1.046875 C 0.742188 -1.785156 0.359375 -2.691406 0.359375 -3.765625 C 0.359375 -4.835938 0.742188 -5.738281 1.515625 -6.46875 Z M 4.375 -6.421875 C 3.625 -6.421875 2.984375 -6.164062 2.453125 -5.65625 C 1.921875 -5.144531 1.65625 -4.515625 1.65625 -3.765625 C 1.65625 -3.015625 1.921875 -2.378906 2.453125 -1.859375 C 2.992188 -1.347656 3.632812 -1.09375 4.375 -1.09375 C 5.113281 -1.09375 5.742188 -1.347656 6.265625 -1.859375 C 6.785156 -2.378906 7.046875 -3.015625 7.046875 -3.765625 C 7.046875 -4.515625 6.785156 -5.144531 6.265625 -5.65625 C 5.742188 -6.164062 5.113281 -6.421875 4.375 -6.421875 Z M 4.375 -6.421875 "/></g></g></g><g fill="#000000" fill-opacity="1"><g transform="translate(210.23904, 283.035521)"><g><path d="M 7.390625 -7.53125 L 7.390625 -3.125 C 7.390625 -2.132812 7.097656 -1.359375 6.515625 -0.796875 C 5.941406 -0.234375 5.144531 0.046875 4.125 0.046875 C 3.101562 0.046875 2.300781 -0.234375 1.71875 -0.796875 C 1.132812 -1.359375 0.84375 -2.132812 0.84375 -3.125 L 0.84375 -7.53125 L 2.109375 -7.53125 L 2.109375 -3.125 C 2.109375 -2.488281 2.289062 -1.988281 2.65625 -1.625 C 3.019531 -1.269531 3.515625 -1.09375 4.140625 -1.09375 C 4.753906 -1.09375 5.238281 -1.269531 5.59375 -1.625 C 5.945312 -1.976562 6.125 -2.476562 6.125 -3.125 L 6.125 -7.53125 Z M 7.390625 -7.53125 "/></g></g></g><g fill="#000000" fill-opacity="1"><g transform="translate(221.687756, 283.035521)"><g><path d="M 5.765625 0 L 4.390625 -2.28125 C 4.316406 -2.269531 4.203125 -2.265625 4.046875 -2.265625 L 2.265625 -2.265625 L 2.265625 0 L 0.984375 0 L 0.984375 -7.53125 L 4.046875 -7.53125 C 5.003906 -7.53125 5.75 -7.304688 6.28125 -6.859375 C 6.8125 -6.410156 7.078125 -5.78125 7.078125 -4.96875 C 7.078125 -4.363281 6.941406 -3.851562 6.671875 -3.4375 C 6.410156 -3.019531 6.023438 -2.710938 5.515625 -2.515625 L 7.21875 0 Z M 2.265625 -3.40625 L 4.046875 -3.40625 C 5.265625 -3.40625 5.875 -3.914062 5.875 -4.9375 C 5.875 -5.90625 5.265625 -6.390625 4.046875 -6.390625 L 2.265625 -6.390625 Z M 2.265625 -3.40625 "/></g></g></g><g fill="#000000" fill-opacity="1"><g transform="translate(232.695314, 283.035521)"><g/></g></g><g fill="#000000" fill-opacity="1"><g transform="translate(238.699433, 283.035521)"><g><path d="M 3.46875 -7.59375 C 4.445312 -7.59375 5.328125 -7.332031 6.109375 -6.8125 L 5.578125 -5.6875 C 4.804688 -6.15625 4.070312 -6.390625 3.375 -6.390625 C 2.988281 -6.390625 2.6875 -6.320312 2.46875 -6.1875 C 2.25 -6.050781 2.140625 -5.859375 2.140625 -5.609375 C 2.140625 -5.359375 2.238281 -5.144531 2.4375 -4.96875 C 2.644531 -4.789062 2.898438 -4.660156 3.203125 -4.578125 C 3.503906 -4.492188 3.828125 -4.390625 4.171875 -4.265625 C 4.523438 -4.140625 4.851562 -4.003906 5.15625 -3.859375 C 5.457031 -3.722656 5.707031 -3.503906 5.90625 -3.203125 C 6.101562 -2.910156 6.203125 -2.550781 6.203125 -2.125 C 6.203125 -1.46875 5.9375 -0.941406 5.40625 -0.546875 C 4.882812 -0.148438 4.203125 0.046875 3.359375 0.046875 C 2.785156 0.046875 2.226562 -0.0625 1.6875 -0.28125 C 1.144531 -0.5 0.675781 -0.789062 0.28125 -1.15625 L 0.828125 -2.25 C 1.210938 -1.894531 1.628906 -1.625 2.078125 -1.4375 C 2.535156 -1.25 2.96875 -1.15625 3.375 -1.15625 C 3.820312 -1.15625 4.171875 -1.234375 4.421875 -1.390625 C 4.671875 -1.554688 4.796875 -1.78125 4.796875 -2.0625 C 4.796875 -2.320312 4.691406 -2.539062 4.484375 -2.71875 C 4.285156 -2.894531 4.035156 -3.023438 3.734375 -3.109375 C 3.429688 -3.191406 3.101562 -3.289062 2.75 -3.40625 C 2.40625 -3.519531 2.082031 -3.644531 1.78125 -3.78125 C 1.476562 -3.914062 1.222656 -4.128906 1.015625 -4.421875 C 0.816406 -4.710938 0.71875 -5.066406 0.71875 -5.484375 C 0.71875 -6.128906 0.96875 -6.640625 1.46875 -7.015625 C 1.976562 -7.398438 2.644531 -7.59375 3.46875 -7.59375 Z M 3.46875 -7.59375 "/></g></g></g><g fill="#000000" fill-opacity="1"><g transform="translate(248.620224, 283.035521)"><g><path d="M 6.140625 -6.390625 L 3.75 -6.390625 L 3.75 0 L 2.46875 0 L 2.46875 -6.390625 L 0.09375 -6.390625 L 0.09375 -7.53125 L 6.140625 -7.53125 Z M 6.140625 -6.390625 "/></g></g></g><g fill="#000000" fill-opacity="1"><g transform="translate(258.078328, 283.035521)"><g><path d="M 4.078125 -2.515625 L 4.078125 0 L 2.828125 0 L 2.828125 -2.46875 L 0.015625 -7.53125 L 1.296875 -7.53125 L 3.4375 -3.859375 L 5.5625 -7.53125 L 6.84375 -7.53125 Z M 4.078125 -2.515625 "/></g></g></g><g fill="#000000" fill-opacity="1"><g transform="translate(268.160526, 283.035521)"><g><path d="M 2.265625 -1.15625 L 5.515625 -1.15625 L 5.515625 0 L 0.984375 0 L 0.984375 -7.53125 L 2.265625 -7.53125 Z M 2.265625 -1.15625 "/></g></g></g><g fill="#000000" fill-opacity="1"><g transform="translate(277.134435, 283.035521)"><g><path d="M 6.375 -6.390625 L 2.265625 -6.390625 L 2.265625 -4.359375 L 5.9375 -4.359375 L 5.9375 -3.21875 L 2.265625 -3.21875 L 2.265625 -1.140625 L 6.5 -1.140625 L 6.5 0 L 0.984375 0 L 0.984375 -7.53125 L 6.375 -7.53125 Z M 6.375 -6.390625 "/></g></g></g></svg>